<svg xmlns="http://www.w3.org/2000/svg" viewBox="0 0 39.9 39.9"><defs><style>.cls-1{fill:#fff;}.cls-2{fill:#58595b;}</style></defs><title>Blok_weergave</title><g id="Layer_2" data-name="Layer 2"><g id="Deel_2" data-name="Deel 2"><g id="Weergave"><rect class="cls-1" width="39.9" height="39.9" rx="5" ry="5"/><rect class="cls-2" x="4.05" y="3.45" width="7.65" height="7.08"/><rect class="cls-2" x="4.05" y="30.24" width="7.65" height="7.08"/><rect class="cls-2" x="4.05" y="21.2" width="7.65" height="7.08"/><rect class="cls-2" x="4.05" y="12.25" width="7.65" height="7.08"/><rect class="cls-2" x="12.47" y="3.46" width="7.65" height="7.08"/><rect class="cls-2" x="12.47" y="30.24" width="7.65" height="7.08"/><rect class="cls-2" x="12.52" y="21.21" width="7.65" height="7.08"/><rect class="cls-2" x="12.47" y="12.25" width="7.65" height="7.08"/><rect class="cls-2" x="20.84" y="3.52" width="7.65" height="7.08"/><rect class="cls-2" x="20.84" y="30.31" width="7.65" height="7.08"/><rect class="cls-2" x="20.84" y="21.28" width="7.65" height="7.08"/><rect class="cls-2" x="20.84" y="12.32" width="7.65" height="7.08"/><rect class="cls-2" x="29.09" y="3.53" width="7.65" height="7.08"/><rect class="cls-2" x="29.09" y="30.32" width="7.65" height="7.08"/><rect class="cls-2" x="29.09" y="21.28" width="7.65" height="7.08"/><rect class="cls-2" x="29.09" y="12.33" width="7.65" height="7.08"/></g></g></g></svg>