<svg xmlns="http://www.w3.org/2000/svg" viewBox="0 0 40.9 40.9"><defs><style>.cls-1{fill:#fff;stroke:#58595b;stroke-miterlimit:10;}.cls-2{fill:#58595b;}</style></defs><title>Blok-selected</title><g id="Layer_2" data-name="Layer 2"><g id="Deel_2" data-name="Deel 2"><g id="Weergave"><rect class="cls-1" x="0.5" y="0.5" width="39.9" height="39.9" rx="5" ry="5"/><rect class="cls-2" x="4.55" y="3.95" width="7.65" height="7.08"/><rect class="cls-2" x="4.55" y="30.74" width="7.65" height="7.08"/><rect class="cls-2" x="4.55" y="21.7" width="7.65" height="7.08"/><rect class="cls-2" x="4.55" y="12.75" width="7.65" height="7.08"/><rect class="cls-2" x="12.97" y="3.96" width="7.65" height="7.08"/><rect class="cls-2" x="12.97" y="30.74" width="7.65" height="7.08"/><rect class="cls-2" x="13.02" y="21.71" width="7.65" height="7.08"/><rect class="cls-2" x="12.97" y="12.75" width="7.65" height="7.08"/><rect class="cls-2" x="21.34" y="4.02" width="7.65" height="7.08"/><rect class="cls-2" x="21.34" y="30.81" width="7.65" height="7.08"/><rect class="cls-2" x="21.34" y="21.78" width="7.65" height="7.08"/><rect class="cls-2" x="21.34" y="12.82" width="7.65" height="7.08"/><rect class="cls-2" x="29.59" y="4.03" width="7.65" height="7.08"/><rect class="cls-2" x="29.59" y="30.82" width="7.65" height="7.08"/><rect class="cls-2" x="29.59" y="21.78" width="7.65" height="7.08"/><rect class="cls-2" x="29.59" y="12.83" width="7.65" height="7.08"/></g></g></g></svg>