<?xml version="1.0" encoding="iso-8859-1"?>
<!-- Generator: Adobe Illustrator 19.0.0, SVG Export Plug-In . SVG Version: 6.00 Build 0)  -->
<svg version="1.1" id="Layer_1" xmlns="http://www.w3.org/2000/svg" xmlns:xlink="http://www.w3.org/1999/xlink" x="0px" y="0px"
	 viewBox="0 0 489.4 489.4" style="enable-background:new 0 0 489.4 489.4;" xml:space="preserve">
<g>
	<g>
		<path style="fill:#2C2F33;" d="M244.7,346.2c-5.5,0-9.9,4.4-9.9,9.9v44.1c-20.2,4.5-35.3,22.5-35.3,44c0,24.9,20.3,45.2,45.2,45.2
			s45.2-20.3,45.2-45.2c0-21.5-15.1-39.5-35.3-44v-44.1C254.6,350.6,250.2,346.2,244.7,346.2z M270.1,444.3
			c0,14-11.4,25.4-25.4,25.4s-25.4-11.4-25.4-25.4s11.4-25.4,25.4-25.4l0,0l0,0C258.7,418.9,270.1,430.3,270.1,444.3z"/>
		<path style="fill:#2C2F33;" d="M244.7,143.2c5.5,0,9.9-4.4,9.9-9.9V89.2c20.2-4.5,35.3-22.5,35.3-44c0-24.9-20.3-45.2-45.2-45.2
			s-45.2,20.3-45.2,45.2c0,21.5,15.1,39.5,35.3,44v44.1C234.8,138.8,239.2,143.2,244.7,143.2z M219.3,45.1c0-14,11.4-25.4,25.4-25.4
			c14,0,25.4,11.4,25.4,25.4s-11.4,25.4-25.4,25.4l0,0l0,0C230.7,70.5,219.3,59.1,219.3,45.1z"/>
		<path style="fill:#2C2F33;" d="M400.2,254.6c4.5,20.2,22.5,35.3,44,35.3c24.9,0,45.2-20.3,45.2-45.2s-20.3-45.2-45.2-45.2
			c-21.5,0-39.5,15.1-44,35.3h-44.1c-5.5,0-9.9,4.4-9.9,9.9s4.4,9.9,9.9,9.9L400.2,254.6L400.2,254.6z M418.9,244.7
			c0-14,11.4-25.4,25.4-25.4s25.4,11.4,25.4,25.4c0,14-11.4,25.4-25.4,25.4S418.9,258.7,418.9,244.7L418.9,244.7L418.9,244.7z"/>
		<path style="fill:#2C2F33;" d="M0,244.7c0,24.9,20.3,45.2,45.2,45.2c21.5,0,39.5-15.1,44-35.3h44.1c5.5,0,9.9-4.4,9.9-9.9
			s-4.4-9.9-9.9-9.9H89.2c-4.5-20.2-22.5-35.3-44-35.3C20.2,199.5,0,219.8,0,244.7z M70.5,244.7c0,14-11.4,25.4-25.4,25.4
			s-25.4-11.4-25.4-25.4s11.4-25.4,25.4-25.4S70.5,230.7,70.5,244.7z"/>
		<path style="fill:#2C2F33;" d="M316.5,316.5c-3.9,3.9-3.9,10.1,0,14l31.2,31.2c-4.6,7.2-7,15.5-7,24.1c0,12.1,4.7,23.4,13.2,31.9
			s19.9,13.2,31.9,13.2c12.1,0,23.4-4.7,31.9-13.2c17.6-17.6,17.6-46.3,0-63.9c-8.5-8.5-19.9-13.2-31.9-13.2c-8.7,0-17,2.5-24.1,7
			l-31.2-31.2C326.6,312.6,320.3,312.6,316.5,316.5z M367.9,367.9L367.9,367.9L367.9,367.9c4.8-4.8,11.2-7.4,17.9-7.4
			c6.8,0,13.1,2.6,17.9,7.4c9.9,9.9,9.9,26,0,35.9c-4.8,4.8-11.2,7.4-17.9,7.4c-6.8,0-13.1-2.6-17.9-7.4s-7.4-11.2-7.4-17.9
			C360.4,379,363.1,372.7,367.9,367.9z"/>
		<path style="fill:#2C2F33;" d="M135.5,71.7c-8.5-8.5-19.9-13.2-31.9-13.2c-12.1,0-23.4,4.7-31.9,13.2s-13.2,19.9-13.2,31.9
			c0,12.1,4.7,23.4,13.2,31.9s19.9,13.2,31.9,13.2c8.7,0,17-2.5,24.1-7l31.2,31.2c1.9,1.9,4.5,2.9,7,2.9s5.1-1,7-2.9
			c3.9-3.9,3.9-10.1,0-14l-31.2-31.2c4.6-7.2,7-15.5,7-24.1C148.8,91.5,144.1,80.2,135.5,71.7z M121.5,121.5L121.5,121.5
			L121.5,121.5c-4.8,4.8-11.2,7.4-17.9,7.4c-6.8,0-13.1-2.6-17.9-7.4s-7.4-11.2-7.4-17.9c0-6.7,2.6-13.2,7.4-17.9
			c4.8-4.8,11.2-7.4,17.9-7.4c6.8,0,13.1,2.6,17.9,7.4s7.4,11.2,7.4,17.9C129,110.4,126.3,116.7,121.5,121.5z"/>
		<path style="fill:#2C2F33;" d="M340.6,103.6c0,8.7,2.5,17,7,24.1l-31.2,31.2c-3.9,3.9-3.9,10.1,0,14c1.9,1.9,4.5,2.9,7,2.9
			s5.1-1,7-2.9l31.3-31.2c7.2,4.6,15.5,7,24.1,7c12.1,0,23.4-4.7,31.9-13.2c17.6-17.6,17.6-46.3,0-63.9
			c-8.5-8.5-19.9-13.2-31.9-13.2c-12.1,0-23.4,4.7-31.9,13.2C345.3,80.2,340.6,91.5,340.6,103.6z M367.9,85.7
			c4.8-4.8,11.2-7.4,17.9-7.4c6.8,0,13.1,2.6,17.9,7.4c9.9,9.9,9.9,26,0,35.9c-4.8,4.8-11.2,7.4-17.9,7.4c-6.8,0-13.1-2.6-17.9-7.4
			l0,0l0,0c-4.8-4.8-7.4-11.2-7.4-17.9C360.4,96.8,363.1,90.4,367.9,85.7z"/>
		<path style="fill:#2C2F33;" d="M172.9,316.5c-3.9-3.9-10.1-3.9-14,0l-31.2,31.2c-7.2-4.6-15.5-7-24.1-7
			c-12.1,0-23.4,4.7-31.9,13.2s-13.2,19.9-13.2,31.9c0,12.1,4.7,23.4,13.2,31.9s19.9,13.2,31.9,13.2c12.1,0,23.4-4.7,31.9-13.2
			c15.2-15.2,17.3-38.6,6.2-56.1l31.2-31.2C176.8,326.6,176.8,320.3,172.9,316.5z M121.5,403.7c-4.8,4.8-11.2,7.4-17.9,7.4
			c-6.8,0-13.1-2.6-17.9-7.4s-7.4-11.2-7.4-17.9c0-6.8,2.6-13.1,7.4-17.9s11.2-7.4,17.9-7.4c6.8,0,13.1,2.6,17.9,7.4l0,0l0,0
			C131.4,377.8,131.4,393.9,121.5,403.7z"/>
		<path style="fill:#3C92CA;" d="M233.2,254.4h22.9c8.4,0,15.2,6.8,15.2,15.3c0,8.4-6.8,15.2-15.2,15.2h-41.2
			c-5.5,0-9.9,4.4-9.9,9.9s4.4,9.9,9.9,9.9h19.9v14.4c0,5.5,4.4,9.9,9.9,9.9s9.9-4.4,9.9-9.9v-14.4h1.6c19.3,0,35.1-15.7,35.1-35
			s-15.7-35.1-35.1-35.1h-22.9c-8.4,0-15.2-6.8-15.2-15.2s6.8-15.2,15.2-15.2h40.4c5.5,0,9.9-4.4,9.9-9.9s-4.4-9.9-9.9-9.9h-19.1
			v-14.1c0-5.5-4.4-9.9-9.9-9.9s-9.9,4.4-9.9,9.9v14.1h-1.6c-19.3,0-35.1,15.7-35.1,35.1C198.2,238.7,213.9,254.4,233.2,254.4z"/>
	</g>
</g>
<g>
</g>
<g>
</g>
<g>
</g>
<g>
</g>
<g>
</g>
<g>
</g>
<g>
</g>
<g>
</g>
<g>
</g>
<g>
</g>
<g>
</g>
<g>
</g>
<g>
</g>
<g>
</g>
<g>
</g>
</svg>
