<?xml version="1.0" encoding="utf-8"?>
<!-- Generator: Adobe Illustrator 16.0.3, SVG Export Plug-In . SVG Version: 6.00 Build 0)  -->
<!DOCTYPE svg PUBLIC "-//W3C//DTD SVG 1.1//EN" "http://www.w3.org/Graphics/SVG/1.1/DTD/svg11.dtd">
<svg version="1.1" id="Layer_1" xmlns="http://www.w3.org/2000/svg" xmlns:xlink="http://www.w3.org/1999/xlink" x="0px" y="0px"
	 width="283.46px" height="150.24px" viewBox="0 0 283.46 150.24" enable-background="new 0 0 283.46 150.24" xml:space="preserve">
<rect y="-0.167" fill="#3F4CA1" width="283.46" height="150.407"/>
<polygon fill="#FFFFFF" points="113.339,134.227 113.37,134.227 115.781,127.451 118.876,128.06 113.266,140.814 113.228,140.814 
	107.849,128.06 110.959,127.451 "/>
<g>
	<path fill="#FFFFFF" d="M122.693,138.582c0.757,0,1.387-0.467,1.387-1.266c0-0.784-0.63-1.246-1.387-1.246
		c-0.771,0-1.402,0.462-1.402,1.246C121.292,138.115,121.922,138.582,122.693,138.582 M120.267,131.044
		c0.721-0.263,1.761-0.432,2.538-0.432c2.302,0,3.882,0.988,3.882,3.353v6.403l-2.441,0.299v-0.948h-0.038
		c-0.542,0.861-1.35,1.096-2.305,1.096c-2.087,0-3.222-1.411-3.222-3.462c0-1.938,1.53-3.147,3.31-3.147
		c0.704,0,1.497,0.28,2.091,0.727c0.017-0.088,0.017-0.187,0.017-0.292c0-1.325-0.595-1.603-1.796-1.603
		c-0.83,0-1.677,0.217-2.433,0.574L120.267,131.044z"/>
	<path fill="#FFFFFF" d="M129.729,137.521c0.555,0.579,1.24,0.876,2.03,0.876c0.471,0,1.26-0.079,1.26-0.766
		c0-1.318-4.315,0-4.315-3.889c0-2.143,1.667-3.131,3.508-3.131c1.115,0,2.266,0.559,3.072,1.34l-1.542,1.625
		c-0.395-0.323-0.958-0.54-1.479-0.54c-0.339,0-0.954,0.071-0.954,0.574c0,1.598,4.324,0,4.324,3.985
		c0,2.104-1.818,3.218-3.635,3.218c-1.567,0-2.45-0.314-3.693-1.298L129.729,137.521z"/>
	<path fill="#FFFFFF" d="M137.066,133.461l0.593-2.417h0.883v-1.899l2.811-1.123v3.022h1.598v2.417h-1.598v3.357
		c0,0.945,0.698,1.206,1.492,1.206c0.252,0,0.61-0.057,0.736-0.114l-0.808,2.874c-0.126,0.014-0.29,0.03-0.432,0.03
		c-2.483,0-3.799-1.223-3.799-3.776v-3.577H137.066z"/>
	<path fill="#FFFFFF" d="M149.337,136.554c0.863,0,1.693-0.724,1.693-1.771c0-1.024-0.83-1.746-1.693-1.746
		c-0.86,0-1.688,0.722-1.688,1.746C147.648,135.83,148.477,136.554,149.337,136.554 M153.889,132.646l-0.882,0.09
		c0.167,0.392,0.673,0.763,0.673,2.121c0,1.12-0.526,2.07-1.535,2.613c1.135,0.739,1.69,1.506,1.69,2.939
		c0,2.496-2.698,3.535-4.8,3.535c-1.588,0-3.026-0.557-4.117-1.749l1.595-1.757c0.682,0.695,1.472,1.086,2.426,1.086
		c0.938,0,2.092-0.426,2.092-1.547c0-1.098-1.029-1.563-2.037-1.563c-0.841,0-1.42,0.167-2.206,0.429l0.211-0.892
		c-1.135-0.562-1.997-1.826-1.997-3.146c0-2.519,1.871-4.192,4.21-4.192c0.517,0,1.241,0.168,2.073,0.202
		c1.079,0.039,2.101-0.313,3.14-0.574L153.889,132.646z"/>
	<path fill="#FFFFFF" d="M160.76,138.115c1.261,0,2.361-1.063,2.361-2.401c0-1.34-1.101-2.399-2.361-2.399
		c-1.239,0-2.331,1.06-2.331,2.399C158.429,137.053,159.521,138.115,160.76,138.115 M155.612,135.714
		c0-2.958,2.438-5.102,5.147-5.102c2.741,0,5.17,2.144,5.17,5.102c0,2.961-2.429,5.101-5.17,5.101
		C158.05,140.814,155.612,138.675,155.612,135.714"/>
	<path fill="#FFFFFF" d="M173.46,133.424c-0.281-0.315-0.756-0.387-1.24-0.387c-1.219,0-2.172,1.19-2.172,2.419v0.332
		L173.46,133.424z M170.875,137.521c0.328,0.481,0.967,0.688,1.504,0.688c0.997,0,1.935-0.484,2.691-1.114l1.47,2.232
		c-1.219,0.876-2.605,1.486-4.215,1.486c-2.941,0-4.979-2.657-4.979-4.969c0-2.847,2.198-5.233,4.854-5.233
		c1.944,0,3.759,1.157,4.635,2.942L170.875,137.521z"/>
	<path fill="#FFFFFF" d="M183.125,138.21c1.261,0,2.249-1.157,2.249-2.497c0-1.339-0.988-2.494-2.249-2.494
		s-2.248,1.155-2.248,2.494C180.877,137.053,181.864,138.21,183.125,138.21 M185.269,127.539l2.808-0.293v13.275l-2.627,0.293
		v-1.375h-0.04c-0.521,1.002-1.549,1.375-2.628,1.375c-2.641,0-4.707-2.232-4.707-4.969c0-2.774,1.954-5.233,4.707-5.233
		c0.883,0,1.868,0.337,2.487,0.974V127.539z"/>
</g>
<polygon fill="#FFFFFF" points="6.402,94.163 23.206,94.163 146.355,15.53 268.557,93.848 275.995,93.848 275.995,86.757 
	146.355,2.266 "/>
<polygon fill="#FFFFFF" points="37.731,94.797 47.837,89.425 47.837,113.429 70.886,109.949 70.886,120.376 37.711,120.376 "/>
<polygon fill="#FFFFFF" points="76.305,73.828 86.766,67.766 86.766,120.912 76.186,120.912 "/>
<polygon fill="#FFFFFF" points="104.479,120.688 104.479,77.993 118.863,120.438 125.046,120.438 139.669,64.795 139.669,120.2 
	150.128,120.2 150.128,37.45 146.446,34.359 134.914,42.085 122.078,92.259 109.949,55.045 93.897,63.961 93.897,120.678 "/>
<g>
	<path fill="#FFFFFF" d="M190.432,102.444c-0.412,3.809-4.91,2.85-4.91,2.85l-17.438-2.505V90.424l17.593,3.46
		c4.915,0.952,4.896,4.524,4.896,4.524L190.432,102.444z M168.084,63.449l18.069,7.611c3.475,1.618,3.003,4.519,3.003,4.519
		l0.009,2.771c-0.159,3.802-3.962,2.854-3.962,2.854l-17.119-6.343V63.449z M201.527,104.823c0,0,0.318-10.465-6.342-13.951
		c0,0,4.954-2.979,5.033-12.549c0,0,0.626-10.751-5.188-15.194l-37.09-21.716v78.311h34.075
		C192.016,119.724,202.022,120.062,201.527,104.823"/>
	<path fill="#FFFFFF" d="M242.901,99.591v8.401c-0.159,3.329-4.442,3.486-4.442,3.486l-14.579-1.107c-6.563-0.746-6.5-6.34-6.5-6.34
		V90.713c0.63-5.392,7.128-3.33,7.128-3.33l14.746,6.821C243.438,95.977,242.901,99.591,242.901,99.591 M247.338,89.762
		l-28.85-16.804c0,0-11.73-5.388-11.413,8.562v27.265c0,0,0.004,11.415,12.047,11.415h25.044c0,0,9.827,0.479,9.827-9.036v-10.777
		C253.993,100.386,253.796,94.014,247.338,89.762"/>
</g>
</svg>
