<?xml version="1.0" encoding="utf-8"?>
<!-- Generator: Adobe Illustrator 21.0.0, SVG Export Plug-In . SVG Version: 6.00 Build 0)  -->
<svg version="1.1" id="Layer_1" xmlns="http://www.w3.org/2000/svg" xmlns:xlink="http://www.w3.org/1999/xlink" x="0px" y="0px"
	 viewBox="0 0 284.8 293.2" style="enable-background:new 0 0 284.8 293.2;" xml:space="preserve">
<style type="text/css">
	.st0{fill:#000007;}
	.st1{fill:#1E7BB7;}
</style>
<path class="st0" d="M182.5,81.9c35.3,6.2,61.8,24.8,78.2,56.7c31.1,60.5-1.7,133.7-66,150.9c-61,16.3-121.1-22.7-131.5-84.9
	c-2.9-17-1.6-33.8,3.8-50.3c1.6,0.5,3.2,1,4.7,1.6c42.2,17,89.6-4,105.5-46.7C180.3,100.3,181.3,91.1,182.5,81.9z"/>
<path class="st1" d="M182.5,81.9c-1.2,9.2-2.2,18.4-5.4,27.3c-15.9,42.7-63.3,63.7-105.5,46.7c-1.5-0.6-3.1-1.1-4.7-1.6
	c-10.3-6.2-20-13.1-27.6-22.6C2.4,85.8,26.1,15.5,83.2,2.2C131-9,177.1,24.2,181.7,73C182,75.9,182.2,78.9,182.5,81.9z"/>
</svg>
