<?xml version="1.0" encoding="utf-8"?>
<!-- Generator: Adobe Illustrator 21.0.0, SVG Export Plug-In . SVG Version: 6.00 Build 0)  -->
<svg version="1.1" id="Layer_1" xmlns="http://www.w3.org/2000/svg" xmlns:xlink="http://www.w3.org/1999/xlink" x="0px" y="0px"
	 viewBox="0 0 1862 468" style="enable-background:new 0 0 1862 468;" xml:space="preserve">
<style type="text/css">
	.st0{fill:#0E446D;}
	.st1{fill:#3EA7DE;}
</style>
<path class="st0" d="M258.9,246.5c10.6-15.5,22.8-28.5,39.5-36.7c16.3-8,33.6-10.2,51.5-8.8c11.1,0.9,21.7,3.3,31.6,8.4
	c18.9,9.7,29.4,25.9,35.6,45.5c4.7,14.9,6.5,30.3,6.6,45.8c0.2,52.2,0.1,104.3,0.2,156.5c0,4-1.5,4.6-5,4.6c-22.5-0.1-45-0.2-67.5,0
	c-4.1,0-5.3-1.1-5.3-5.3c0.1-45.7,0.1-91.3,0.1-137c0-10.9-0.9-21.7-4.5-32c-4.7-13.5-13.2-23.2-27.9-25.7
	c-15.8-2.6-29.8,0.9-40.8,13.3c-10.5,11.9-14.2,26.1-14.2,41.5c0,46.2,0,92.3,0,138.5c0,6.5,0,6.5-6.4,6.5
	c-22.2,0-44.3-0.1-66.5,0.1c-4,0-5-1.1-5-5c0.1-81.8,0.1-163.6,0-245.4c0-3.6,0.8-4.8,4.7-4.8c22.8,0.2,45.7,0.2,68.5,0
	c3.7,0,4.8,1,4.8,4.7C258.8,223,258.9,234.7,258.9,246.5z"/>
<path class="st0" d="M29.3,283c0-36.8-0.1-73.7,0.1-110.5c0-4.1-1-5.5-5.2-5.3c-6.6,0.3-13.3,0-20,0.1c-2.8,0.1-4.2-0.5-4.2-3.8
	c0.1-18.5,0.1-37,0-55.5c0-3,1.2-3.5,3.8-3.5c43.5,0.1,87,0.1,130.5,0c3.2,0,3.8,1.2,3.8,4.1c-0.1,18.2-0.1,36.3,0,54.5
	c0,3.3-0.9,4.4-4.2,4.3c-7-0.2-14,0.1-21-0.1c-3.4-0.1-4.2,1.1-4.2,4.3c0.1,16.2,0.1,32.3,0.1,48.5c0,57.8,0.1,115.7-0.1,173.5
	c0,4.9,1.4,6.3,6.1,6c6.3-0.4,12.7,0,19-0.2c3.2-0.1,4.4,0.8,4.3,4.1c-0.2,18-0.1,36,0,54c0,3.1-0.7,4.4-4.1,4.4
	c-43.3-0.1-86.7-0.1-130,0c-3.4,0-4.1-1.3-4.1-4.4c0.1-18,0.2-36,0-54c0-3.4,1.2-4.2,4.3-4.1c6.7,0.2,13.3-0.1,20,0.1
	c3.9,0.2,5.1-0.9,5.1-5c-0.2-22.2-0.1-44.3-0.1-66.5C29.3,313,29.3,298,29.3,283z"/>
<path class="st0" d="M588.1,407.5c3.9-26.7,12.6-52.3,19.8-78.2c9.6-34.8,19.5-69.5,29.2-104.2c1.4-5,2.9-9.9,4.2-14.9
	c0.7-2.6,1.8-3.7,4.8-3.7c24.5,0.1,49,0.1,73.5,0c2.9,0,3.9,0.4,2.7,3.6c-18.3,49.8-36.6,99.6-54.8,149.4
	c-11.6,31.7-23.3,63.4-34.6,95.2c-1.8,5.1-4,7.2-9.8,7.1c-25.7-0.4-51.3-0.2-77-0.1c-3.4,0-4.9-1-6-4.2
	c-27.1-77.9-54.3-155.8-81.4-233.7c-1.6-4.7-3.1-9.5-4.8-14.2c-1-2.7-0.1-3.2,2.3-3.2c25.5,0,51,0.1,76.5-0.1c3.8,0,3.8,2.6,4.4,4.7
	c6.6,23.5,13.1,47.1,19.6,70.6c7.6,27.4,15.2,54.8,22.7,82.2c3.5,12.8,6.7,25.7,7.9,39.1C587.4,404.6,587.8,406,588.1,407.5z"/>
<path class="st0" d="M1011.9,391.1c11.2,6.4,21.6,11.9,32.8,15.7c21.4,7.2,43,10.3,65.3,4.6c8.6-2.2,16.5-5.6,19.3-15.3
	c1.8-6.3,0.5-11.9-4.2-16.5c-8.2-8.2-18.9-11.6-29.5-15c-17.8-5.7-35.4-11.8-51.4-21.6c-20.2-12.4-30.5-30.4-32.2-54.2
	c-3.2-45.1,25.3-70.5,59.4-80.8c38.2-11.6,76.3-8.5,114.2,2.3c2.7,0.8,3.8,1.9,3.7,4.8c-0.1,17.7-0.2,35.3,0,53
	c0,4.6-1.6,3.5-4.3,2.1c-19.7-10.8-40.8-16.1-63.2-15.5c-7.5,0.2-14.9,1.5-21.8,4.6c-14.7,6.5-16.8,21.9-4.2,31.9
	c8.9,7.1,19.7,10.1,30.3,13.7c18.4,6.3,36.9,12.7,52.7,24.6c16,12.1,24.2,28.1,25.5,48.2c2.9,43-22.1,68.9-55.6,81
	c-27,9.7-55,10.8-83.3,8.4c-17-1.4-33.6-4.9-49.7-10.3c-1.9-0.6-3.7-1.1-3.7-3.8C1011.9,432.4,1011.9,412.3,1011.9,391.1z"/>
<path class="st0" d="M1400.1,400.4c0,19.2,0,37.6,0,56.1c0,2.5-1.7,3-3.3,3.7c-9,4.2-18.7,6-28.5,6.8c-15.4,1.2-30.9,1.7-46.2-1.8
	c-30-6.9-46.8-26.1-53-55.7c-2.1-10.3-2.6-20.8-2.7-31.3c-0.1-35.8-0.1-71.6,0.1-107.5c0-4.7-0.9-6.4-5.9-6.2
	c-10.1,0.4-20.3,0-30.5,0.2c-3.3,0.1-4.3-1-4.2-4.2c0.1-16.7,0.1-33.3,0-50c0-3,0.9-4,4-4c10.5,0.2,21-0.2,31.5,0.2
	c4.3,0.1,5.2-1.3,5.2-5.4c-0.2-15.2,0-30.3-0.2-45.5c0-3.3,1.1-4.5,4.2-5.4c22.9-6.5,45.7-13.1,68.5-20c4-1.2,5.1-0.6,5.1,3.7
	c-0.2,22.5,0,45-0.2,67.5c0,3.8,0.8,5.1,4.9,5.1c15.5-0.3,31,0,46.5-0.2c3.5,0,5,0.5,4.9,4.5c-0.2,16.5-0.2,33,0,49.5
	c0,3.2-0.9,4.3-4.2,4.2c-15.8-0.2-31.7,0-47.5-0.1c-3.4,0-4.6,0.7-4.6,4.4c0.1,34.3,0.1,68.6,0.1,103c0,5.2,0.8,10.3,2.4,15.2
	c5.3,16.6,19.4,23.5,38.4,19.1C1390,405.1,1394.8,402.9,1400.1,400.4z"/>
<path class="st1" d="M1772,81.9c35.3,6.2,61.8,24.8,78.2,56.7c31.1,60.5-1.7,133.7-66,150.9c-61,16.3-121.1-22.7-131.5-84.9
	c-2.9-17-1.6-33.8,3.8-50.3c1.6,0.5,3.2,1,4.7,1.6c42.2,17,89.6-4,105.5-46.7C1769.8,100.3,1770.8,91.1,1772,81.9z"/>
<path class="st0" d="M1522.3,252.9c2.1-4.5,4-9.1,6.3-13.5c15.3-29.3,39.4-40,70.6-36.6c8.4,0.9,8.7,1.5,8.7,9.8
	c0,19.8,0,39.7,0,59.5c0,1.6,0,3.2,0,5.4c-5.5-2.2-10.3-4.5-15.5-5.5c-20.6-4-40-2.9-54.9,14.5c-10.1,11.8-14.5,26.2-15.4,41.4
	c-2,35-0.5,70-0.9,104.9c-0.1,8.2-0.1,16.3,0,24.5c0.1,3.1-0.7,4.4-4.1,4.3c-23-0.1-46-0.2-69,0c-4.3,0-4.3-2.1-4.3-5.2
	c0-62.5,0-125,0-187.5c0-19.2,0.1-38.3-0.1-57.5c0-3.7,0.7-5.2,4.9-5.2c22.7,0.2,45.3,0.2,68,0c4,0,4.7,1.3,4.6,4.9
	c-0.2,13.8-0.1,27.5-0.1,41.3C1521.6,252.8,1522,252.9,1522.3,252.9z"/>
<path class="st0" d="M1772,81.9c-1.2,9.2-2.2,18.4-5.4,27.3c-15.9,42.7-63.3,63.7-105.5,46.7c-1.5-0.6-3.1-1.1-4.7-1.6
	c-10.3-6.2-20-13.1-27.6-22.6c-36.9-45.9-13.2-116.2,43.9-129.5c47.8-11.2,93.9,22,98.5,70.8C1771.5,75.9,1771.7,78.9,1772,81.9z"/>
<path class="st0" d="M982,343.1c0.2-7.7,0.1-15.3,0-23c-0.1-14.6-1.9-28.9-6.1-42.9c-8.7-28.9-25.3-51.7-52.9-65.1
	c-21.8-10.6-45.1-12.9-69.1-10.8c-48.7,4.2-91.1,38.8-105.1,85.5c-6.8,22.6-8,45.5-6.4,68.7c1.3,18.6,5.7,36.5,14.6,53
	c20.7,38.4,54.8,55.2,96.6,58.6c17.8,1.5,35.6,0.8,53.3-1.8c17.2-2.5,33.9-6.8,49.6-14.6c2.5-1.3,3.7-2.7,3.6-5.7
	c-0.2-16-0.1-32,0-48c0-3.6-0.6-4.5-4.1-2.5c-27.5,15.7-57.3,19.8-88.3,15.8c-27.5-3.6-43.9-19.6-48.5-46.6c-1.1-6.3-1-6.4,5.4-6.4
	c25.3,0,50.7,0,76,0c22.3,0,44.7,0,67,0c4.6,0,10.6,2,13.5-0.8C984.1,353.8,981.9,347.7,982,343.1z M905.4,308.8
	c-10.4-0.1-20.7-0.1-31.1-0.1c-3.5,0-6.9,0-10.4,0c-7,0-14,0-21,0s-14,0-21,0c-1.8,0-4.5,0.7-3.8-2.8c3.2-17,9.7-32.2,23.7-43.1
	c23.9-18.7,57.7-7.1,65.3,22.1c1.7,6.3,2.3,12.7,2.8,19.2C910.5,308,909.1,308.9,905.4,308.8z"/>
</svg>
