<?xml version="1.0" encoding="utf-8"?>
<!-- Generator: Adobe Illustrator 21.0.0, SVG Export Plug-In . SVG Version: 6.00 Build 0)  -->
<svg version="1.1"
	 id="Layer_1" xmlns:cc="http://creativecommons.org/ns#" xmlns:dc="http://purl.org/dc/elements/1.1/" xmlns:rdf="http://www.w3.org/1999/02/22-rdf-syntax-ns#"
	 xmlns="http://www.w3.org/2000/svg" xmlns:xlink="http://www.w3.org/1999/xlink" x="0px" y="0px" viewBox="0 0 349.4 349.4"
	 style="enable-background:new 0 0 349.4 349.4;" xml:space="preserve">
<style type="text/css">
	.st0{fill:#1DA1F2;}
	.st1{fill:#FFFFFF;}
</style>
<circle class="st0" cx="174.7" cy="174.7" r="174.7"/>
<g transform="translate(-539.18 -568.86)">
	<path class="st1" d="M676,840.4c87.1,0,134.7-72.2,134.7-134.7c0-2-0.1-4.1-0.2-6.1c9.2-6.7,17.3-15,23.6-24.5
		c-8.5,3.8-17.6,6.3-27.2,7.4c9.8-5.9,17.3-15.1,20.8-26.2c-9.1,5.4-19.3,9.4-30,11.5c-8.7-9.2-20.9-14.9-34.5-14.9
		c-26.2,0-47.3,21.2-47.3,47.3c0,3.7,0.4,7.4,1.2,10.8c-39.3-2-74.3-20.8-97.6-49.5c-4.1,7-6.4,15.1-6.4,23.8
		c0,16.4,8.4,30.9,21.1,39.4c-7.7-0.2-15.1-2.4-21.5-5.9c0,0.2,0,0.4,0,0.6c0,22.9,16.3,42.1,38,46.4c-3.9,1.1-8.1,1.7-12.5,1.7
		c-3,0-6-0.3-8.9-0.9c6,18.8,23.5,32.5,44.2,32.9c-16.2,12.7-36.6,20.3-58.8,20.3c-3.8,0-7.6-0.2-11.3-0.6
		C624.3,832.5,649.2,840.4,676,840.4"/>
</g>
</svg>
